<svg width="136" height="24" viewBox="0 0 136 24" fill="none" xmlns="http://www.w3.org/2000/svg">
<path d="M31.3199 9.51196C30.6456 8.51619 29.7149 7.73572 28.5011 7.19747C27.2872 6.65921 25.8981 6.39009 24.32 6.39009C22.8769 6.39009 21.5417 6.6323 20.3009 7.11673C19.0735 7.60116 18.0215 8.27398 17.1583 9.13518L19.3972 11.7188C20.0041 11.0729 20.7055 10.575 21.5147 10.2117C22.3239 9.86183 23.1871 9.67344 24.1177 9.67344C25.3855 9.67344 26.3971 9.98293 27.1254 10.6154C27.7998 11.194 28.1504 11.9879 28.2044 13.0106H24.4684C22.8904 13.0106 21.5012 13.2259 20.3143 13.6565C19.114 14.0871 18.1968 14.6927 17.5495 15.4866C16.9021 16.267 16.5784 17.2224 16.5784 18.3393C16.5784 19.3889 16.8481 20.3174 17.3741 21.1113C17.9001 21.9053 18.6419 22.5377 19.586 22.9818C20.5301 23.4258 21.6361 23.6546 22.8904 23.6546C24.2661 23.6546 25.4799 23.372 26.532 22.7934C27.3277 22.3628 27.9886 21.7841 28.5281 21.0979L30.5646 23.1298H32.318V13.1452C32.318 11.7053 31.9808 10.4808 31.3199 9.48505V9.51196ZM27.8807 18.4739C27.4491 19.0929 26.8826 19.5908 26.1948 19.9406C25.5069 20.2905 24.7381 20.4789 23.9019 20.4789C23.0118 20.4789 22.297 20.277 21.744 19.8599C21.191 19.4562 20.9213 18.891 20.9213 18.1778C20.9213 17.3974 21.2719 16.8053 21.9868 16.4016C22.7016 15.9979 23.6322 15.7826 24.8056 15.7826H28.2313V17.7607C28.1234 18.0029 28.029 18.2451 27.8807 18.4604V18.4739ZM71.6197 9.51196C70.9454 8.51619 70.0148 7.73572 68.8009 7.19747C67.5871 6.65921 66.1979 6.39009 64.6199 6.39009C63.1767 6.39009 61.8415 6.6323 60.6007 7.11673C59.3733 7.60116 58.3213 8.27398 57.4581 9.13518L59.697 11.7188C60.304 11.0729 61.0053 10.575 61.8145 10.2117C62.6238 9.86183 63.4869 9.67344 64.4176 9.67344C65.6854 9.67344 66.6969 9.98293 67.4252 10.6154C68.0996 11.194 68.4502 11.9879 68.5042 13.0106H64.7682C63.1902 13.0106 61.801 13.2259 60.6142 13.6565C59.4138 14.0871 58.4967 14.6927 57.8493 15.4866C57.2019 16.267 56.8782 17.2224 56.8782 18.3393C56.8782 19.3889 57.1479 20.3174 57.6739 21.1113C58.1999 21.9053 58.9417 22.5377 59.8859 22.9818C60.83 23.4258 61.9359 23.6546 63.1902 23.6546C64.5659 23.6546 65.7798 23.372 66.8318 22.7934C67.6275 22.3628 68.2884 21.7841 68.8279 21.0979L70.8645 23.1298H72.6178V13.1452C72.6178 11.7053 72.2806 10.4808 71.6197 9.48505V9.51196ZM68.1805 18.4739C67.7489 19.0929 67.1824 19.5908 66.4946 19.9406C65.8067 20.2905 65.038 20.4789 64.2018 20.4789C63.3116 20.4789 62.5968 20.277 62.0438 19.8599C61.4908 19.4562 61.2211 18.891 61.2211 18.1778C61.2211 17.3974 61.5718 16.8053 62.2866 16.4016C63.0014 15.9979 63.932 15.7826 65.1054 15.7826H68.5312V17.7607C68.4233 18.0029 68.3289 18.2451 68.1805 18.4604V18.4739ZM90.5153 6.91489V23.1567H88.6001L86.3073 20.9633C85.8083 21.7303 85.1744 22.3493 84.3786 22.8203C83.4211 23.3855 82.2881 23.6815 80.9934 23.6815C79.0782 23.6815 77.5541 23.1163 76.4347 21.986C75.3152 20.8557 74.7488 19.214 74.7488 17.061V6.91489H79.0242V16.6035C79.0242 17.7607 79.3074 18.6488 79.8874 19.2409C80.4539 19.833 81.2361 20.129 82.2342 20.129C82.949 20.129 83.6099 19.9675 84.2033 19.658C84.8102 19.3485 85.3093 18.9045 85.7274 18.3393C85.9566 18.0298 86.1185 17.68 86.2399 17.3166V6.91489H90.5153ZM91.8506 20.7346L94.1839 18.0837C94.9122 18.8103 95.8023 19.4024 96.8274 19.833C97.8524 20.2636 98.9044 20.4789 99.9834 20.4789C100.981 20.4789 101.764 20.2905 102.357 19.9272C102.951 19.5639 103.247 19.1063 103.247 18.5681C103.247 18.0298 102.978 17.5992 102.452 17.3301C101.926 17.061 100.941 16.8322 99.5248 16.6304C97.151 16.2805 95.4112 15.7288 94.3187 14.9618C93.2263 14.1948 92.6733 13.1317 92.6733 11.7861C92.6733 10.7096 92.97 9.76763 93.5769 8.96025C94.1838 8.15287 95.0201 7.52042 96.099 7.07636C97.178 6.61885 98.3919 6.40354 99.7541 6.40354C101.373 6.40354 102.802 6.65921 104.043 7.18401C105.284 7.69535 106.349 8.38163 107.226 9.21592L104.893 11.8668C104.218 11.1805 103.45 10.6288 102.573 10.2251C101.696 9.82146 100.766 9.60615 99.7676 9.60615C98.8369 9.60615 98.0952 9.78109 97.5557 10.1175C97.0027 10.4674 96.7329 10.898 96.7329 11.4093C96.7329 11.8668 97.0027 12.2032 97.5422 12.4454C98.0817 12.6877 99.0258 12.8895 100.388 13.0644C102.721 13.4143 104.461 13.9795 105.635 14.7734C106.794 15.5673 107.388 16.7246 107.388 18.2317C107.388 19.3351 107.064 20.2905 106.417 21.1248C105.769 21.9591 104.879 22.5915 103.746 23.0356C102.613 23.4796 101.292 23.6949 99.7811 23.6949C98.1626 23.6949 96.679 23.4258 95.3168 22.8876C93.9546 22.3493 92.8081 21.6361 91.8506 20.7615V20.7346ZM0.339767 23.1567V0.0656052H4.70963V17.8414L2.5247 19.3755H15.6478V23.1567H0.339767ZM50.3774 0.0656052V9.74072H39.3448V0.0656052H34.975V23.1567H39.3448V15.3655L36.6609 13.4816H50.3908V23.1567H54.7607V0.0656052H50.3908H50.3774Z" fill="#004132"/>
<path d="M127.853 23.1902H125.55V20.1616L125.518 19.2782V13.505C125.518 12.201 125.119 11.1704 124.32 10.4133C123.541 9.63511 122.469 9.24602 121.102 9.24602C119.314 9.24602 117.8 9.99266 116.559 11.4859L114.981 9.94008C116.748 8.08927 118.841 7.16386 121.259 7.16386C122.584 7.16386 123.741 7.42676 124.73 7.95256C125.718 8.45733 126.486 9.18293 127.033 10.1294C127.58 11.0548 127.853 12.1484 127.853 13.4103V23.1902ZM120.061 23.6949C118.967 23.6949 117.999 23.4846 117.158 23.064C116.317 22.6433 115.654 22.065 115.171 21.3289C114.708 20.5717 114.477 19.7199 114.477 18.7735C114.477 17.1961 115.076 15.9447 116.275 15.0193C117.495 14.0939 119.125 13.6312 121.165 13.6312H125.802V15.5871H121.449C120.04 15.5871 118.946 15.8606 118.168 16.4074C117.39 16.9332 117 17.6903 117 18.6788C117 19.5832 117.305 20.3088 117.915 20.8556C118.546 21.4025 119.377 21.6759 120.408 21.6759C121.417 21.6759 122.322 21.4656 123.121 21.0449C123.92 20.6032 124.561 20.0038 125.045 19.2467C125.529 18.4685 125.802 17.5852 125.865 16.5967L126.78 17.133C126.78 18.3949 126.486 19.5201 125.897 20.5086C125.329 21.4971 124.54 22.2753 123.531 22.8431C122.521 23.411 121.365 23.6949 120.061 23.6949Z" fill="#E19BFF"/>
<path d="M134.729 23.1902H132.3V7.66863H134.729V23.1902ZM135.203 1.80073C135.203 2.3055 135.034 2.72613 134.698 3.06264C134.382 3.37812 133.983 3.53586 133.499 3.53586C133.015 3.53586 132.605 3.37812 132.269 3.06264C131.953 2.72613 131.795 2.3055 131.795 1.80073C131.795 1.29596 131.953 0.885842 132.269 0.570364C132.605 0.233853 133.015 0.0655975 133.499 0.0655975C133.983 0.0655975 134.382 0.233853 134.698 0.570364C135.034 0.885842 135.203 1.29596 135.203 1.80073Z" fill="#E19BFF"/>
</svg>
