<svg width="135" height="24" viewBox="0 0 135 24" fill="none" xmlns="http://www.w3.org/2000/svg">
<path d="M30.9801 9.44636C30.3058 8.45059 29.3752 7.67012 28.1613 7.13186C26.9475 6.59361 25.5583 6.32448 23.9803 6.32448C22.5371 6.32448 21.2019 6.5667 19.9611 7.05113C18.7338 7.53555 17.6817 8.20837 16.8186 9.06958L19.0574 11.6532C19.6644 11.0073 20.3657 10.5094 21.1749 10.1461C21.9842 9.79622 22.8474 9.60783 23.778 9.60783C25.0458 9.60783 26.0573 9.91733 26.7856 10.5498C27.46 11.1284 27.8107 11.9223 27.8646 12.945H24.1286C22.5506 12.945 21.1615 13.1603 19.9746 13.5909C18.7742 14.0215 17.8571 14.627 17.2097 15.421C16.5623 16.2014 16.2386 17.1568 16.2386 18.2737C16.2386 19.3233 16.5084 20.2518 17.0344 21.0457C17.5604 21.8397 18.3022 22.4721 19.2463 22.9162C20.1904 23.3602 21.2963 23.589 22.5506 23.589C23.9263 23.589 25.1402 23.3064 26.1922 22.7278C26.9879 22.2972 27.6488 21.7185 28.1883 21.0323L30.2249 23.0642H31.9782V13.0796C31.9782 11.6397 31.641 10.4152 30.9801 9.41944V9.44636ZM27.5409 18.4083C27.1093 19.0273 26.5429 19.5252 25.855 19.875C25.1672 20.2249 24.3984 20.4133 23.5622 20.4133C22.672 20.4133 21.9572 20.2114 21.4042 19.7943C20.8512 19.3906 20.5815 18.8254 20.5815 18.1122C20.5815 17.3318 20.9322 16.7397 21.647 16.336C22.3618 15.9323 23.2924 15.717 24.4658 15.717H27.8916V17.6951C27.7837 17.9373 27.6893 18.1795 27.5409 18.3948V18.4083ZM71.28 9.44636C70.6056 8.45059 69.675 7.67012 68.4611 7.13186C67.2473 6.59361 65.8581 6.32448 64.2801 6.32448C62.837 6.32448 61.5017 6.5667 60.2609 7.05113C59.0336 7.53555 57.9816 8.20837 57.1184 9.06958L59.3573 11.6532C59.9642 11.0073 60.6655 10.5094 61.4748 10.1461C62.284 9.79622 63.1472 9.60783 64.0778 9.60783C65.3456 9.60783 66.3571 9.91733 67.0854 10.5498C67.7598 11.1284 68.1105 11.9223 68.1644 12.945H64.4285C62.8505 12.945 61.4613 13.1603 60.2744 13.5909C59.074 14.0215 58.1569 14.627 57.5095 15.421C56.8621 16.2014 56.5384 17.1568 56.5384 18.2737C56.5384 19.3233 56.8082 20.2518 57.3342 21.0457C57.8602 21.8397 58.602 22.4721 59.5461 22.9162C60.4902 23.3602 61.5961 23.589 62.8505 23.589C64.2261 23.589 65.44 23.3064 66.492 22.7278C67.2878 22.2972 67.9486 21.7185 68.4881 21.0323L70.5247 23.0642H72.278V13.0796C72.278 11.6397 71.9408 10.4152 71.28 9.41944V9.44636ZM67.8407 18.4083C67.4091 19.0273 66.8427 19.5252 66.1548 19.875C65.467 20.2249 64.6982 20.4133 63.862 20.4133C62.9718 20.4133 62.257 20.2114 61.704 19.7943C61.1511 19.3906 60.8813 18.8254 60.8813 18.1122C60.8813 17.3318 61.232 16.7397 61.9468 16.336C62.6616 15.9323 63.5922 15.717 64.7656 15.717H68.1914V17.6951C68.0835 17.9373 67.9891 18.1795 67.8407 18.3948V18.4083ZM90.1756 6.84928V23.0911H88.2604L85.9675 20.8977C85.4685 21.6647 84.8346 22.2837 84.0389 22.7547C83.0813 23.3198 81.9484 23.6159 80.6536 23.6159C78.7384 23.6159 77.2143 23.0507 76.0949 21.9204C74.9755 20.7901 74.409 19.1484 74.409 16.9954V6.84928H78.6845V16.5378C78.6845 17.6951 78.9677 18.5832 79.5476 19.1753C80.1141 19.7674 80.8964 20.0634 81.8944 20.0634C82.6092 20.0634 83.2701 19.9019 83.8635 19.5924C84.4705 19.2829 84.9695 18.8389 85.3876 18.2737C85.6169 17.9642 85.7787 17.6144 85.9001 17.251V6.84928H90.1756ZM91.5108 20.6689L93.8441 18.018C94.5724 18.7447 95.4626 19.3368 96.4876 19.7674C97.5126 20.198 98.5646 20.4133 99.6436 20.4133C100.642 20.4133 101.424 20.2249 102.017 19.8616C102.611 19.4982 102.908 19.0407 102.908 18.5025C102.908 17.9642 102.638 17.5336 102.112 17.2645C101.586 16.9954 100.601 16.7666 99.185 16.5648C96.8113 16.2149 95.0714 15.6632 93.979 14.8962C92.8865 14.1292 92.3335 13.0661 92.3335 11.7205C92.3335 10.644 92.6302 9.70203 93.2371 8.89464C93.8441 8.08726 94.6803 7.45482 95.7593 7.01076C96.8382 6.55324 98.0521 6.33794 99.4143 6.33794C101.033 6.33794 102.462 6.59361 103.703 7.11841C104.944 7.62975 106.01 8.31602 106.886 9.15032L104.553 11.8012C103.879 11.1149 103.11 10.5632 102.233 10.1595C101.356 9.75585 100.426 9.54055 99.4278 9.54055C98.4972 9.54055 97.7554 9.71548 97.2159 10.0519C96.6629 10.4018 96.3932 10.8324 96.3932 11.3437C96.3932 11.8012 96.6629 12.1376 97.2024 12.3798C97.7419 12.6221 98.686 12.8239 100.048 12.9988C102.381 13.3487 104.121 13.9139 105.295 14.7078C106.455 15.5017 107.048 16.659 107.048 18.1661C107.048 19.2695 106.724 20.2249 106.077 21.0592C105.43 21.8935 104.539 22.5259 103.407 22.97C102.274 23.414 100.952 23.6293 99.4413 23.6293C97.8228 23.6293 96.3392 23.3602 94.977 22.822C93.6148 22.2837 92.4684 21.5705 91.5108 20.6959V20.6689ZM0 23.0911V0H4.36986V17.7758L2.18493 19.3099H15.308V23.0911H0ZM50.0376 0V9.67511H39.005V0H34.6352V23.0911H39.005V15.2999L36.3211 13.416H50.0511V23.0911H54.4209V0H50.0511H50.0376Z" fill="white"/>
<path d="M127.513 23.1246H125.21V20.096L125.179 19.2126V13.4394C125.179 12.1354 124.779 11.1048 123.98 10.3477C123.202 9.56951 122.129 9.18042 120.762 9.18042C118.974 9.18042 117.46 9.92705 116.219 11.4203L114.642 9.87447C116.408 8.02366 118.501 7.09826 120.92 7.09826C122.245 7.09826 123.401 7.36116 124.39 7.88696C125.378 8.39172 126.146 9.11732 126.693 10.0638C127.24 10.9892 127.513 12.0828 127.513 13.3447V23.1246ZM119.721 23.6293C118.627 23.6293 117.66 23.419 116.818 22.9984C115.977 22.5777 115.315 21.9994 114.831 21.2632C114.368 20.5061 114.137 19.6543 114.137 18.7079C114.137 17.1305 114.736 15.8791 115.935 14.9537C117.155 14.0283 118.785 13.5656 120.825 13.5656H125.463V15.5215H121.109C119.7 15.5215 118.606 15.795 117.828 16.3418C117.05 16.8676 116.661 17.6247 116.661 18.6132C116.661 19.5176 116.966 20.2432 117.576 20.79C118.207 21.3369 119.037 21.6103 120.068 21.6103C121.077 21.6103 121.982 21.4 122.781 20.9793C123.58 20.5376 124.222 19.9382 124.705 19.1811C125.189 18.4029 125.463 17.5196 125.526 16.5311L126.441 17.0674C126.441 18.3293 126.146 19.4545 125.557 20.443C124.989 21.4315 124.201 22.2097 123.191 22.7775C122.182 23.3454 121.025 23.6293 119.721 23.6293Z" fill="#E19BFF"/>
<path d="M134.39 23.1246H131.96V7.60303H134.39V23.1246ZM134.863 1.73512C134.863 2.23989 134.695 2.66053 134.358 2.99704C134.043 3.31252 133.643 3.47026 133.159 3.47026C132.676 3.47026 132.265 3.31252 131.929 2.99704C131.613 2.66053 131.456 2.23989 131.456 1.73512C131.456 1.23036 131.613 0.820237 131.929 0.504759C132.265 0.168248 132.676 -7.62939e-06 133.159 -7.62939e-06C133.643 -7.62939e-06 134.043 0.168248 134.358 0.504759C134.695 0.820237 134.863 1.23036 134.863 1.73512Z" fill="#E19BFF"/>
</svg>
