<svg xmlns="http://www.w3.org/2000/svg" xmlns:xlink="http://www.w3.org/1999/xlink" id="Grupo_5540" data-name="Grupo 5540" width="269.081" height="74.376" viewBox="0 0 269.081 74.376"><defs><linearGradient id="linear-gradient" x1="0.043" y1="0.5" x2="0.955" y2="0.5" gradientUnits="objectBoundingBox"><stop offset="0" stop-color="#efbf01"></stop><stop offset="0.85" stop-color="#e3a207"></stop><stop offset="1" stop-color="#d8800d"></stop></linearGradient><linearGradient id="linear-gradient-2" x1="-0.201" y1="1" x2="0.865" y2="1" xlink:href="#linear-gradient"></linearGradient><linearGradient id="linear-gradient-3" x1="0.073" y1="0.559" x2="0.944" y2="0.562" gradientUnits="objectBoundingBox"><stop offset="0" stop-color="#3a9236"></stop><stop offset="0.727" stop-color="#1c7b34"></stop><stop offset="1" stop-color="#07582b"></stop></linearGradient><clipPath id="clip-path"><rect id="Rect&#xE1;ngulo_2493" data-name="Rect&#xE1;ngulo 2493" width="269.081" height="74.376" fill="none"></rect></clipPath><clipPath id="clip-path-2"><path id="Trazado_4673" data-name="Trazado 4673" d="M43.42,25.939c-9.8,0-17.473,8.3-17.481,18.89v.021c.008,10.6,7.682,18.892,17.481,18.892h7.35c-.019-.018-.042-.037-.058-.055a19.67,19.67,0,0,1-4.959-8.631H45.17c-6.03,0-9.777-3.913-9.777-10.216S39.14,34.627,45.17,34.627h5.667c.006,0,.009-.006.012-.012l.211-.2h0a17.5,17.5,0,0,1,12.09-4.843h12.87l.254-.016s1.565-.114,1.829-1.382a1.863,1.863,0,0,0,.032-.3v-.021a1.924,1.924,0,0,0-1.915-1.91Z" transform="translate(-25.939 -25.939)" fill="url(#linear-gradient)"></path></clipPath><clipPath id="clip-path-3"><path id="Trazado_4674" data-name="Trazado 4674" d="M76.548,72.8c1.518,2.329,4.1,3.628,7.516,3.628l11.342.014a2,2,0,0,0,1.873-1.392,1.708,1.708,0,0,0,.031-.254v-.1h0v-.064A1.906,1.906,0,0,0,95.4,72.811l-.639-.011Z" transform="translate(-76.548 -72.8)" fill="url(#linear-gradient-2)"></path></clipPath><clipPath id="clip-path-4"><path id="Trazado_4675" data-name="Trazado 4675" d="M88.331,32.34v.013H75.177a16.741,16.741,0,0,0-11.782,4.829V37.2h-.018A19.534,19.534,0,0,0,57.7,51.256a19.779,19.779,0,0,0,5.546,13.983,16.721,16.721,0,0,0,11.9,4.9H87.675l.557-.015a1.92,1.92,0,0,0,1.923-1.913V60.538a2.417,2.417,0,0,1-1.887.945l-11.34-.011c-6.031,0-9.776-3.915-9.776-10.216S70.9,41.045,76.927,41.032h11.4a1.913,1.913,0,0,0,1.819-1.9V31.392a2.429,2.429,0,0,1-1.819.948" transform="translate(-57.697 -31.392)" fill="url(#linear-gradient-3)"></path></clipPath></defs><g id="Grupo_5529" data-name="Grupo 5529"><g id="Grupo_5528" data-name="Grupo 5528" clip-path="url(#clip-path)"><path id="Trazado_4662" data-name="Trazado 4662" d="M125.494,62.785c.015-.019.028-.041.045-.061l0,0a5.692,5.692,0,0,1,4.583-1.893,7.253,7.253,0,0,1,1.839.221,4.851,4.851,0,0,1,1.454.727,5.271,5.271,0,0,1,1.744,3.032h4.454c-.007-.086-.021-.168-.03-.252h.03a8.035,8.035,0,0,0-2.712-5.685,10.3,10.3,0,0,0-6.778-2.081c-.063,0-.12,0-.182.006s-.135-.006-.206-.006q-5.034,0-7.683,2.966-2.649,2.838-2.65,8.4c0,.021,0,.042,0,.063s0,.043,0,.062q0,5.556,2.65,8.4,2.646,2.97,7.683,2.968c.071,0,.137-.006.206-.006s.119.006.182.006A10.281,10.281,0,0,0,136.9,77.56a8.019,8.019,0,0,0,2.712-5.68h-.03c.009-.085.022-.168.03-.254h-4.454a5.248,5.248,0,0,1-1.744,3.028,4.742,4.742,0,0,1-1.454.729,7.115,7.115,0,0,1-1.839.221,5.692,5.692,0,0,1-4.583-1.893h0c-.017-.022-.03-.042-.045-.065a8.623,8.623,0,0,1-1.5-5.43,8.64,8.64,0,0,1,1.5-5.432" transform="translate(-45.207 -21.501)" fill="#1e1e1c"></path><path id="Trazado_4663" data-name="Trazado 4663" d="M276.34,82.675V71.458A2.651,2.651,0,0,0,275.4,69.2a3.389,3.389,0,0,0-2.1-.713,3.256,3.256,0,0,0-2.065.713,2.688,2.688,0,0,0-.9,2.258V82.675h-4.523V72.36q0-4.389,2.294-5.875a10.031,10.031,0,0,1,5.069-1.614,9.75,9.75,0,0,1,5.233,1.485q2.38,1.489,2.384,6V82.675H276.34Z" transform="translate(-100.638 -24.56)" fill="#1e1e1c"></path><path id="Trazado_4664" data-name="Trazado 4664" d="M193.1,82.675V71.458a2.65,2.65,0,0,0-.935-2.258,3.386,3.386,0,0,0-2.1-.713A3.262,3.262,0,0,0,188,69.2a2.691,2.691,0,0,0-.9,2.258V82.675h-4.521V72.36q0-4.389,2.293-5.875a10.01,10.01,0,0,1,5.068-1.614,9.745,9.745,0,0,1,5.231,1.485q2.388,1.489,2.389,6V82.675H193.1Z" transform="translate(-69.124 -24.56)" fill="#1e1e1c"></path><path id="Trazado_4665" data-name="Trazado 4665" d="M320.152,82.7V73.717a10.571,10.571,0,0,1,.745-4.229,7,7,0,0,1,2.031-2.745,8.1,8.1,0,0,1,2.875-1.422,12.774,12.774,0,0,1,3.391-.451h.645v4.585h-1.486a3.775,3.775,0,0,0-2.775.905,3.875,3.875,0,0,0-.9,2.838V82.7Z" transform="translate(-121.211 -24.56)" fill="#1e1e1c"></path><path id="Trazado_4666" data-name="Trazado 4666" d="M343.051,72.082h6.777a4.086,4.086,0,0,0-.929-2.574,3.246,3.246,0,0,0-2.459-.9,3.293,3.293,0,0,0-2.392.9,3.618,3.618,0,0,0-1,2.574m7.976,5.021h3.318a6.984,6.984,0,0,1-2.789,4.12,8.623,8.623,0,0,1-5.183,1.481,7.508,7.508,0,0,1-5.91-2.381q-2.13-2.317-2.13-6.634a9.355,9.355,0,0,1,2.062-6.434,7.507,7.507,0,0,1,5.911-2.383,8.1,8.1,0,0,1,6.179,2.318,9.6,9.6,0,0,1,2.128,6.631v.709a1.007,1.007,0,0,1-.067.447H343.051a4.339,4.339,0,0,0,1,2.965,3.183,3.183,0,0,0,2.587,1.032,3.857,3.857,0,0,0,1.931-.453.916.916,0,0,0,.365-.222c.11-.109.233-.23.367-.356a1.418,1.418,0,0,1,.5-.515,2.032,2.032,0,0,1,1.233-.324" transform="translate(-128.094 -24.561)" fill="#1e1e1c"></path><path id="Trazado_4667" data-name="Trazado 4667" d="M371.581,56.81v5.014h2.646v3.932h-2.646v9.47c0,.725.43,1.091,1.289,1.091h1.356v3.336a34.068,34.068,0,0,1-4.615-.068q-2.488-.192-2.487-3.14V56.81h4.456Z" transform="translate(-138.995 -21.509)" fill="#1e1e1c"></path><path id="Trazado_4668" data-name="Trazado 4668" d="M386.873,69.521h0a5.847,5.847,0,0,0-1.251,4.408,6.886,6.886,0,0,0,1.12,4.086,2.91,2.91,0,0,0,1.381.868,3.217,3.217,0,0,0,2.006.066,3.386,3.386,0,0,0,1.809-1.45,7.1,7.1,0,0,0,.854-3.731,6.425,6.425,0,0,0-.758-3.475,3.386,3.386,0,0,0-1.741-1.478,3.258,3.258,0,0,0-1.974-.032,3.4,3.4,0,0,0-1.448.738m-3.156,11.326a6.367,6.367,0,0,1-1.978-3.121,14.076,14.076,0,0,1-.59-4.083,12.555,12.555,0,0,1,.5-3.478,7.112,7.112,0,0,1,1.541-2.893,6.875,6.875,0,0,1,4.41-2.284,10.321,10.321,0,0,1,4.87.417,6.655,6.655,0,0,1,3.683,3.346,10.489,10.489,0,0,1,1.117,4.954,12.1,12.1,0,0,1-.46,3.541,9.067,9.067,0,0,1-1.184,2.507,6.584,6.584,0,0,1-4.012,2.64,9.172,9.172,0,0,1-4.377.1,7.727,7.727,0,0,1-3.516-1.644" transform="translate(-144.305 -24.562)" fill="#1e1e1c"></path><path id="Trazado_4669" data-name="Trazado 4669" d="M243.007,69.521h0a5.853,5.853,0,0,0-1.251,4.408,6.948,6.948,0,0,0,1.116,4.086,2.946,2.946,0,0,0,1.386.868,3.174,3.174,0,0,0,2.009.066,3.355,3.355,0,0,0,1.809-1.448,7.152,7.152,0,0,0,.854-3.733,6.424,6.424,0,0,0-.758-3.475,3.388,3.388,0,0,0-1.74-1.478,3.23,3.23,0,0,0-1.975-.032,3.416,3.416,0,0,0-1.45.738m-3.156,11.326a6.3,6.3,0,0,1-1.974-3.119,14.043,14.043,0,0,1-.592-4.085,12.713,12.713,0,0,1,.493-3.478,7.068,7.068,0,0,1,1.548-2.9,6.864,6.864,0,0,1,4.408-2.284,10.331,10.331,0,0,1,4.866.417,6.632,6.632,0,0,1,3.685,3.347,10.469,10.469,0,0,1,1.116,4.956,12.033,12.033,0,0,1-.457,3.539,9.072,9.072,0,0,1-1.184,2.51,6.6,6.6,0,0,1-4.015,2.638,9.149,9.149,0,0,1-4.375.1,7.728,7.728,0,0,1-3.518-1.645" transform="translate(-89.837 -24.561)" fill="#1e1e1c"></path><path id="Trazado_4670" data-name="Trazado 4670" d="M159.765,69.521h0a5.847,5.847,0,0,0-1.25,4.408,6.9,6.9,0,0,0,1.119,4.086,2.9,2.9,0,0,0,1.381.868,3.17,3.17,0,0,0,2.008.066,3.343,3.343,0,0,0,1.808-1.448,7.121,7.121,0,0,0,.855-3.733,6.449,6.449,0,0,0-.756-3.475,3.4,3.4,0,0,0-1.742-1.478,3.235,3.235,0,0,0-1.977-.032,3.408,3.408,0,0,0-1.448.738m-3.156,11.326a6.331,6.331,0,0,1-1.977-3.119,14.147,14.147,0,0,1-.59-4.085,12.669,12.669,0,0,1,.494-3.478,7.147,7.147,0,0,1,1.546-2.9,6.876,6.876,0,0,1,4.41-2.284,10.334,10.334,0,0,1,4.866.417,6.648,6.648,0,0,1,3.685,3.347,10.521,10.521,0,0,1,1.117,4.956,12.09,12.09,0,0,1-.46,3.539,9,9,0,0,1-1.187,2.51,6.577,6.577,0,0,1-4.009,2.638,9.147,9.147,0,0,1-4.375.1,7.71,7.71,0,0,1-3.521-1.645" transform="translate(-58.321 -24.561)" fill="#1e1e1c"></path><path id="Trazado_4671" data-name="Trazado 4671" d="M304.853,77.205h-1.42a3.894,3.894,0,0,1-.646.96,3.1,3.1,0,0,1-2.294.889,3.04,3.04,0,0,1-2.42-1.016q-1.158-1.209-1.165-4.131c.006-1.941.393-3.319,1.165-4.127a3.03,3.03,0,0,1,2.42-1.015,3.083,3.083,0,0,1,2.294.885,3.931,3.931,0,0,1,.646.96h4.649a6.992,6.992,0,0,0-2.711-4.091,7.5,7.5,0,0,0-3.267-1.328.02.02,0,0,0-.013,0,10.6,10.6,0,0,0-1.76-.142h-.06a7.218,7.218,0,0,0-5.748,2.368,9.437,9.437,0,0,0-2,6.4c0,.032,0,.061,0,.094s0,.065,0,.1a9.435,9.435,0,0,0,2,6.4,7.223,7.223,0,0,0,5.748,2.367l.029,0,.031,0a10.577,10.577,0,0,0,1.76-.145h.013A7.5,7.5,0,0,0,305.37,81.3a6.986,6.986,0,0,0,2.711-4.094h-3.229Z" transform="translate(-110.75 -24.627)" fill="#1e1e1c"></path><path id="Trazado_4672" data-name="Trazado 4672" d="M222.752,77.205h-1.42a3.947,3.947,0,0,1-.646.96,3.1,3.1,0,0,1-2.291.889,3.044,3.044,0,0,1-2.423-1.016q-1.158-1.209-1.163-4.131c.006-1.941.391-3.319,1.163-4.127a3.034,3.034,0,0,1,2.423-1.015,3.083,3.083,0,0,1,2.291.885,3.985,3.985,0,0,1,.646.96h4.649a6.984,6.984,0,0,0-2.709-4.091A7.531,7.531,0,0,0,220,65.192a.024.024,0,0,0-.014,0,10.635,10.635,0,0,0-1.76-.142h-.061a7.22,7.22,0,0,0-5.748,2.368,9.43,9.43,0,0,0-2,6.4c0,.032,0,.061,0,.094s0,.065,0,.1a9.428,9.428,0,0,0,2,6.4,7.225,7.225,0,0,0,5.748,2.367l.029,0,.032,0a10.583,10.583,0,0,0,1.76-.145H220a7.53,7.53,0,0,0,3.267-1.327,6.978,6.978,0,0,0,2.709-4.094h-3.229Z" transform="translate(-79.667 -24.627)" fill="#1e1e1c"></path></g></g><g id="Grupo_5531" data-name="Grupo 5531" transform="translate(16.118 16.118)"><g id="Grupo_5530" data-name="Grupo 5530" clip-path="url(#clip-path-2)"><rect id="Rect&#xE1;ngulo_2494" data-name="Rect&#xE1;ngulo 2494" width="52.199" height="37.803" transform="translate(0 0)" fill="url(#linear-gradient)"></rect></g></g><g id="Grupo_5533" data-name="Grupo 5533" transform="translate(47.567 45.238)"><g id="Grupo_5532" data-name="Grupo 5532" clip-path="url(#clip-path-3)"><rect id="Rect&#xE1;ngulo_2495" data-name="Rect&#xE1;ngulo 2495" width="20.766" height="3.642" transform="translate(0)" fill="url(#linear-gradient-2)"></rect></g></g><g id="Grupo_5535" data-name="Grupo 5535" transform="translate(35.853 19.507)"><g id="Grupo_5534" data-name="Grupo 5534" clip-path="url(#clip-path-4)"><rect id="Rect&#xE1;ngulo_2496" data-name="Rect&#xE1;ngulo 2496" width="32.457" height="38.751" transform="translate(0 0)" fill="url(#linear-gradient-3)"></rect></g></g><g id="Grupo_5537" data-name="Grupo 5537"><g id="Grupo_5536" data-name="Grupo 5536" clip-path="url(#clip-path)"><path id="Trazado_4676" data-name="Trazado 4676" d="M216.2,99.477h0a5.848,5.848,0,0,0-4.408-1.251,6.886,6.886,0,0,0-4.086,1.12,2.91,2.91,0,0,0-.868,1.381,3.217,3.217,0,0,0-.066,2.006,3.386,3.386,0,0,0,1.45,1.809,7.1,7.1,0,0,0,3.731.854,6.425,6.425,0,0,0,3.475-.758,3.385,3.385,0,0,0,1.478-1.741,3.258,3.258,0,0,0,.032-1.974,3.4,3.4,0,0,0-.738-1.448m-11.326-3.156A6.367,6.367,0,0,1,208,94.343a14.078,14.078,0,0,1,4.083-.59,12.556,12.556,0,0,1,3.478.5,7.113,7.113,0,0,1,2.893,1.541,6.875,6.875,0,0,1,2.284,4.41,10.321,10.321,0,0,1-.417,4.87,6.655,6.655,0,0,1-3.346,3.683,10.489,10.489,0,0,1-4.954,1.117,12.1,12.1,0,0,1-3.541-.46,9.066,9.066,0,0,1-2.507-1.184,6.584,6.584,0,0,1-2.64-4.012,9.171,9.171,0,0,1-.1-4.377,7.727,7.727,0,0,1,1.644-3.516" transform="translate(-76.862 -35.495)" fill="none"></path><path id="Trazado_4677" data-name="Trazado 4677" d="M216.2,5.724h0a5.848,5.848,0,0,0-4.408-1.251,6.886,6.886,0,0,0-4.086,1.12,2.91,2.91,0,0,0-.868,1.381,3.217,3.217,0,0,0-.066,2.006,3.386,3.386,0,0,0,1.45,1.809,7.1,7.1,0,0,0,3.731.854,6.425,6.425,0,0,0,3.475-.758,3.385,3.385,0,0,0,1.478-1.741,3.258,3.258,0,0,0,.032-1.974,3.4,3.4,0,0,0-.738-1.448M204.875,2.568A6.367,6.367,0,0,1,208,.59,14.078,14.078,0,0,1,212.079,0a12.556,12.556,0,0,1,3.478.5,7.113,7.113,0,0,1,2.893,1.541,6.875,6.875,0,0,1,2.284,4.41,10.321,10.321,0,0,1-.417,4.87A6.655,6.655,0,0,1,216.971,15a10.489,10.489,0,0,1-4.954,1.117,12.1,12.1,0,0,1-3.541-.46,9.066,9.066,0,0,1-2.507-1.184,6.584,6.584,0,0,1-2.64-4.012,9.171,9.171,0,0,1-.1-4.377,7.727,7.727,0,0,1,1.644-3.516" transform="translate(-76.862 0)" fill="none"></path><path id="Trazado_4678" data-name="Trazado 4678" d="M5.724,45.146h0a5.847,5.847,0,0,0-1.251,4.408,6.886,6.886,0,0,0,1.12,4.086,2.91,2.91,0,0,0,1.381.868,3.217,3.217,0,0,0,2.006.066,3.386,3.386,0,0,0,1.809-1.45,7.1,7.1,0,0,0,.854-3.731,6.425,6.425,0,0,0-.758-3.475,3.385,3.385,0,0,0-1.741-1.478,3.258,3.258,0,0,0-1.974-.032,3.4,3.4,0,0,0-1.448.738M2.568,56.472A6.366,6.366,0,0,1,.59,53.351,14.077,14.077,0,0,1,0,49.268,12.556,12.556,0,0,1,.5,45.79,7.113,7.113,0,0,1,2.038,42.9a6.875,6.875,0,0,1,4.41-2.284,10.321,10.321,0,0,1,4.87.417A6.655,6.655,0,0,1,15,44.376a10.489,10.489,0,0,1,1.117,4.954,12.1,12.1,0,0,1-.46,3.541,9.066,9.066,0,0,1-1.184,2.507,6.584,6.584,0,0,1-4.012,2.64,9.172,9.172,0,0,1-4.377.1,7.727,7.727,0,0,1-3.516-1.644" transform="translate(0 -15.334)" fill="none"></path><path id="Trazado_4679" data-name="Trazado 4679" d="M412.812,45.146h0a5.847,5.847,0,0,0-1.251,4.408,6.886,6.886,0,0,0,1.12,4.086,2.91,2.91,0,0,0,1.381.868,3.217,3.217,0,0,0,2.006.066,3.386,3.386,0,0,0,1.809-1.45,7.1,7.1,0,0,0,.854-3.731,6.424,6.424,0,0,0-.758-3.475,3.385,3.385,0,0,0-1.741-1.478,3.258,3.258,0,0,0-1.974-.032,3.4,3.4,0,0,0-1.448.738m-3.156,11.326a6.366,6.366,0,0,1-1.978-3.121,14.077,14.077,0,0,1-.59-4.083,12.554,12.554,0,0,1,.5-3.478,7.112,7.112,0,0,1,1.541-2.893,6.875,6.875,0,0,1,4.41-2.284,10.321,10.321,0,0,1,4.87.417,6.655,6.655,0,0,1,3.683,3.346,10.489,10.489,0,0,1,1.117,4.954,12.1,12.1,0,0,1-.46,3.541,9.066,9.066,0,0,1-1.184,2.507,6.584,6.584,0,0,1-4.012,2.64,9.172,9.172,0,0,1-4.377.1,7.726,7.726,0,0,1-3.516-1.644" transform="translate(-154.125 -15.334)" fill="none"></path></g></g></svg>